<svg width="234" height="41" viewBox="0 0 234 41" fill="none" xmlns="http://www.w3.org/2000/svg">
<path d="M73.071 28.592C73.207 28.592 73.343 28.6203 73.479 28.677C73.615 28.7223 73.7453 28.8073 73.87 28.932L76.148 31.329C75.1507 32.6323 73.8983 33.6183 72.391 34.287C70.895 34.9443 69.1213 35.273 67.07 35.273C65.1887 35.273 63.5 34.9556 62.004 34.321C60.5193 33.675 59.2557 32.791 58.213 31.669C57.1817 30.5356 56.3883 29.1983 55.833 27.657C55.2777 26.1043 55 24.4213 55 22.608C55 20.7606 55.3003 19.0663 55.901 17.525C56.5017 15.9723 57.346 14.635 58.434 13.513C59.522 12.391 60.8253 11.5183 62.344 10.895C63.8627 10.2716 65.5343 9.95996 67.359 9.95996C68.2883 9.95996 69.161 10.045 69.977 10.215C70.8043 10.3736 71.575 10.6003 72.289 10.895C73.003 11.1783 73.6603 11.524 74.261 11.932C74.8617 12.34 75.3943 12.782 75.859 13.258L73.921 15.859C73.7963 16.0176 73.649 16.165 73.479 16.301C73.309 16.4256 73.071 16.488 72.765 16.488C72.561 16.488 72.3683 16.4426 72.187 16.352C72.0057 16.2613 71.813 16.1536 71.609 16.029C71.405 15.893 71.1783 15.7513 70.929 15.604C70.691 15.4453 70.402 15.3036 70.062 15.179C69.7333 15.043 69.3423 14.9296 68.889 14.839C68.447 14.7483 67.9257 14.703 67.325 14.703C66.373 14.703 65.5003 14.8786 64.707 15.23C63.925 15.5813 63.245 16.097 62.667 16.777C62.1003 17.4456 61.6583 18.273 61.341 19.259C61.035 20.2336 60.882 21.35 60.882 22.608C60.882 23.8773 61.052 25.005 61.392 25.991C61.7433 26.977 62.2137 27.81 62.803 28.49C63.4037 29.1586 64.1007 29.6686 64.894 30.02C65.6873 30.3713 66.5373 30.547 67.444 30.547C67.9653 30.547 68.4413 30.5243 68.872 30.479C69.3027 30.4223 69.705 30.3373 70.079 30.224C70.453 30.0993 70.8043 29.9406 71.133 29.748C71.4617 29.544 71.796 29.289 72.136 28.983C72.272 28.8696 72.4193 28.779 72.578 28.711C72.7367 28.6316 72.901 28.592 73.071 28.592Z" fill="#304FFE"/>
<path d="M93.3496 21.146H87.4846V35.001H82.2146V21.146H76.3496V17.372H93.3496V21.146Z" fill="#304FFE"/>
<path d="M101.409 30.207C101.805 30.6376 102.236 30.9436 102.701 31.125C103.165 31.3063 103.653 31.397 104.163 31.397C104.65 31.397 105.098 31.3006 105.506 31.108C105.914 30.9153 106.265 30.6093 106.56 30.19C106.866 29.7593 107.104 29.204 107.274 28.524C107.444 27.844 107.529 27.0166 107.529 26.042C107.529 25.1126 107.461 24.3306 107.325 23.696C107.189 23.0613 106.996 22.5513 106.747 22.166C106.509 21.7693 106.22 21.486 105.88 21.316C105.54 21.146 105.16 21.061 104.741 21.061C103.97 21.061 103.335 21.2026 102.837 21.486C102.338 21.7693 101.862 22.183 101.409 22.727V30.207ZM101.086 19.548C101.777 18.8113 102.559 18.2106 103.432 17.746C104.316 17.27 105.364 17.032 106.577 17.032C107.495 17.032 108.345 17.236 109.127 17.644C109.909 18.052 110.583 18.6413 111.15 19.412C111.716 20.1826 112.158 21.129 112.476 22.251C112.804 23.3616 112.969 24.6253 112.969 26.042C112.969 27.368 112.782 28.592 112.408 29.714C112.045 30.836 111.529 31.8106 110.861 32.638C110.203 33.4653 109.41 34.1113 108.481 34.576C107.563 35.0406 106.543 35.273 105.421 35.273C104.503 35.273 103.732 35.1426 103.109 34.882C102.485 34.6213 101.919 34.27 101.409 33.828V40.594H96.1387V17.372H99.4027C100.06 17.372 100.491 17.6666 100.695 18.256L101.086 19.548Z" fill="#304FFE"/>
<path d="M124.468 17.1C125.805 17.1 127.024 17.3096 128.123 17.729C129.222 18.1483 130.163 18.749 130.945 19.531C131.738 20.313 132.35 21.265 132.781 22.387C133.223 23.4976 133.444 24.75 133.444 26.144C133.444 27.5493 133.223 28.8186 132.781 29.952C132.35 31.074 131.738 32.0316 130.945 32.825C130.163 33.607 129.222 34.2133 128.123 34.644C127.024 35.0633 125.805 35.273 124.468 35.273C123.119 35.273 121.89 35.0633 120.779 34.644C119.68 34.2133 118.728 33.607 117.923 32.825C117.13 32.0316 116.512 31.074 116.07 29.952C115.639 28.8186 115.424 27.5493 115.424 26.144C115.424 24.75 115.639 23.4976 116.07 22.387C116.512 21.265 117.13 20.313 117.923 19.531C118.728 18.749 119.68 18.1483 120.779 17.729C121.89 17.3096 123.119 17.1 124.468 17.1ZM124.468 31.363C125.681 31.363 126.57 30.938 127.137 30.088C127.715 29.2266 128.004 27.9233 128.004 26.178C128.004 24.4326 127.715 23.135 127.137 22.285C126.57 21.435 125.681 21.01 124.468 21.01C123.221 21.01 122.309 21.435 121.731 22.285C121.153 23.135 120.864 24.4326 120.864 26.178C120.864 27.9233 121.153 29.2266 121.731 30.088C122.309 30.938 123.221 31.363 124.468 31.363Z" fill="#304FFE"/>
<path d="M153.268 17.372V35.001H147.998V26.025C147.998 25.7303 148.015 25.413 148.049 25.073C148.083 24.7216 148.128 24.3646 148.185 24.002C147.913 24.614 147.624 25.1296 147.318 25.549C147.295 25.5716 147.199 25.7076 147.029 25.957C146.87 26.2063 146.661 26.5293 146.4 26.926C146.151 27.3113 145.862 27.7476 145.533 28.235C145.216 28.7223 144.887 29.221 144.547 29.731C143.754 30.921 142.864 32.264 141.878 33.76C141.776 33.9073 141.657 34.0603 141.521 34.219C141.396 34.3663 141.255 34.5023 141.096 34.627C140.937 34.7403 140.767 34.8366 140.586 34.916C140.405 34.984 140.212 35.018 140.008 35.018H136.778V17.389H142.048V26.365C142.048 26.6483 142.031 26.9656 141.997 27.317C141.963 27.6683 141.918 28.0253 141.861 28.388C142.133 27.776 142.422 27.2603 142.728 26.841C142.739 26.8183 142.83 26.6823 143 26.433C143.17 26.1836 143.38 25.8663 143.629 25.481C143.89 25.0843 144.179 24.6423 144.496 24.155C144.825 23.6676 145.159 23.169 145.499 22.659C146.292 21.469 147.182 20.126 148.168 18.63C148.27 18.4826 148.383 18.3353 148.508 18.188C148.644 18.0293 148.791 17.8933 148.95 17.78C149.109 17.6553 149.279 17.559 149.46 17.491C149.641 17.4116 149.834 17.372 150.038 17.372H153.268ZM145.295 12.765C145.68 12.765 145.998 12.7253 146.247 12.646C146.496 12.5666 146.689 12.4306 146.825 12.238C146.972 12.0453 147.069 11.7903 147.114 11.473C147.171 11.1443 147.199 10.7306 147.199 10.232H150.327C150.508 10.232 150.661 10.2773 150.786 10.368C150.922 10.4473 151.03 10.555 151.109 10.691C151.2 10.8156 151.268 10.963 151.313 11.133C151.358 11.2916 151.381 11.456 151.381 11.626C151.381 12.2266 151.228 12.765 150.922 13.241C150.627 13.7056 150.208 14.108 149.664 14.448C149.131 14.7766 148.491 15.0316 147.743 15.213C147.006 15.383 146.19 15.468 145.295 15.468C144.4 15.468 143.578 15.383 142.83 15.213C142.093 15.0316 141.453 14.7766 140.909 14.448C140.376 14.108 139.957 13.7056 139.651 13.241C139.356 12.765 139.209 12.2266 139.209 11.626C139.209 11.456 139.232 11.2916 139.277 11.133C139.322 10.963 139.385 10.8156 139.464 10.691C139.555 10.555 139.662 10.4473 139.787 10.368C139.923 10.2773 140.082 10.232 140.263 10.232H143.391C143.391 10.7306 143.414 11.1443 143.459 11.473C143.516 11.7903 143.612 12.0453 143.748 12.238C143.895 12.4306 144.088 12.5666 144.326 12.646C144.575 12.7253 144.898 12.765 145.295 12.765Z" fill="#304FFE"/>
<path d="M179.714 30.7344V14.4994H174.24C174.104 16.6414 173.928 18.5624 173.713 20.2624C173.498 21.9624 173.248 23.4698 172.965 24.7844C172.682 26.0991 172.364 27.2494 172.013 28.2354C171.673 29.2101 171.305 30.0431 170.908 30.7344H179.714ZM189.166 30.7344V39.2174C189.166 39.6934 188.996 40.0731 188.656 40.3564C188.327 40.6398 187.897 40.7814 187.364 40.7814H183.896V35.0014H167.27V39.2174C167.27 39.6934 167.1 40.0731 166.76 40.3564C166.431 40.6398 166.001 40.7814 165.468 40.7814H162V30.7344H164.788C165.071 30.5644 165.36 30.2981 165.655 29.9354C165.95 29.5614 166.233 29.0458 166.505 28.3884C166.788 27.7311 167.055 26.8981 167.304 25.8894C167.553 24.8808 167.78 23.6454 167.984 22.1834C168.188 20.7214 168.358 19.0101 168.494 17.0494C168.641 15.0774 168.749 12.8051 168.817 10.2324H185.494V30.7344H189.166Z" fill="#0091EA"/>
<path d="M199.779 17.1004C201.116 17.1004 202.334 17.3101 203.434 17.7294C204.533 18.1488 205.474 18.7494 206.256 19.5314C207.049 20.3134 207.661 21.2654 208.092 22.3874C208.534 23.4981 208.755 24.7504 208.755 26.1444C208.755 27.5498 208.534 28.8191 208.092 29.9524C207.661 31.0744 207.049 32.0321 206.256 32.8254C205.474 33.6074 204.533 34.2138 203.434 34.6444C202.334 35.0638 201.116 35.2734 199.779 35.2734C198.43 35.2734 197.2 35.0638 196.09 34.6444C194.99 34.2138 194.038 33.6074 193.234 32.8254C192.44 32.0321 191.823 31.0744 191.381 29.9524C190.95 28.8191 190.735 27.5498 190.735 26.1444C190.735 24.7504 190.95 23.4981 191.381 22.3874C191.823 21.2654 192.44 20.3134 193.234 19.5314C194.038 18.7494 194.99 18.1488 196.09 17.7294C197.2 17.3101 198.43 17.1004 199.779 17.1004ZM199.779 31.3634C200.991 31.3634 201.881 30.9384 202.448 30.0884C203.026 29.2271 203.315 27.9238 203.315 26.1784C203.315 24.4331 203.026 23.1354 202.448 22.2854C201.881 21.4354 200.991 21.0104 199.779 21.0104C198.532 21.0104 197.62 21.4354 197.042 22.2854C196.464 23.1354 196.175 24.4331 196.175 26.1784C196.175 27.9238 196.464 29.2271 197.042 30.0884C197.62 30.9384 198.532 31.3634 199.779 31.3634Z" fill="#0091EA"/>
<path d="M233.22 17.3554V35.0014H228.46V26.6544C228.46 26.2238 228.482 25.7364 228.528 25.1924C228.573 24.6484 228.641 24.1328 228.732 23.6454L224.414 32.0094C224.096 32.5874 223.603 32.8764 222.935 32.8764H222.374C221.705 32.8764 221.212 32.5874 220.895 32.0094L216.56 23.6114C216.65 24.1101 216.718 24.6314 216.764 25.1754C216.82 25.7194 216.849 26.2124 216.849 26.6544V35.0014H212.089V17.3554H216.509C216.871 17.3554 217.228 17.4348 217.58 17.5934C217.942 17.7408 218.248 18.0411 218.498 18.4944L221.473 24.5294C221.699 24.9261 221.909 25.3568 222.102 25.8214C222.294 26.2748 222.476 26.7394 222.646 27.2154C222.816 26.7394 222.997 26.2748 223.19 25.8214C223.382 25.3568 223.592 24.9261 223.819 24.5294L226.811 18.4944C227.06 18.0298 227.36 17.7238 227.712 17.5764C228.074 17.4291 228.437 17.3554 228.8 17.3554H233.22Z" fill="#0091EA"/>
<path d="M43.1965 18.7095C42.7951 18.7095 42.3893 18.5817 42.0496 18.3173L23.6826 4.14285C23.0077 3.62293 22.0638 3.62293 21.3889 4.14285L3.02633 18.3173C2.2059 18.9518 1.02377 18.7976 0.393013 17.978C-0.242158 17.1585 -0.0921875 15.9777 0.732653 15.3476L19.0953 1.17313C21.1243 -0.391042 23.9561 -0.391042 25.9807 1.17313L44.3477 15.3476C45.1682 15.9821 45.3181 17.1585 44.6874 17.978C44.3124 18.4583 43.7567 18.7095 43.1965 18.7095Z" fill="#0091EA"/>
<path d="M35.6538 39.815H9.42215C6.29923 39.815 3.75854 37.2771 3.75854 34.1576V20.1153C3.75854 19.0798 4.60103 18.2383 5.63759 18.2383C6.67416 18.2383 7.51664 19.0798 7.51664 20.1153V34.1576C7.51664 35.2062 8.37236 36.061 9.42215 36.061H35.6583C36.708 36.061 37.5638 35.2062 37.5638 34.1576V20.1153C37.5638 19.0798 38.4062 18.2383 39.4428 18.2383C40.4794 18.2383 41.3219 19.0798 41.3219 20.1153V34.1576C41.3174 37.2771 38.7768 39.815 35.6538 39.815Z" fill="#304FFE"/>
</svg>
