<svg width="64" height="64" viewBox="0 0 64 64" fill="none" xmlns="http://www.w3.org/2000/svg">
<g clip-path="url(#clip0_921_111)">
<path d="M61.3298 30.5634C60.7599 30.5634 60.1838 30.382 59.7016 30.0067L33.6243 9.88196C32.6661 9.14378 31.3259 9.14378 30.3678 9.88196L4.29674 30.0067C3.1319 30.9075 1.45354 30.6886 0.557994 29.525C-0.343814 28.3614 -0.130887 26.6849 1.04021 25.7903L27.1112 5.66559C29.992 3.4448 34.0126 3.4448 36.8871 5.66559L62.9644 25.7903C64.1292 26.6911 64.3421 28.3614 63.4466 29.525C62.9143 30.2069 62.1252 30.5634 61.3298 30.5634Z" fill="white"/>
<path d="M50.6208 61.1978H13.3774C8.94354 61.1978 5.3363 57.5945 5.3363 53.1655V33.2284C5.3363 31.7583 6.53245 30.5635 8.00415 30.5635C9.47585 30.5635 10.672 31.7583 10.672 33.2284V53.1655C10.672 54.6543 11.8869 55.868 13.3774 55.868H50.6271C52.1176 55.868 53.3325 54.6543 53.3325 53.1655V33.2284C53.3325 31.7583 54.5287 30.5635 56.0004 30.5635C57.4721 30.5635 58.6682 31.7583 58.6682 33.2284V53.1655C58.662 57.5945 55.0547 61.1978 50.6208 61.1978Z" fill="white"/>
</g>
<defs>
<clipPath id="clip0_921_111">
<rect width="64" height="64" fill="white"/>
</clipPath>
</defs>
</svg>
